<?xml version="1.0" encoding="UTF-8" standalone="no"?>
<svg
   id="chipstead_pennant"
   viewBox="0 0 537 266"
   version="1.1"
   sodipodi:docname="chipstead_pennant.svg"
   inkscape:version="1.4.4 (dcaf3e7, 2026-05-05)"
   xmlns:inkscape="http://www.inkscape.org/namespaces/inkscape"
   xmlns:sodipodi="http://sodipodi.sourceforge.net/DTD/sodipodi-0.dtd"
   xmlns="http://www.w3.org/2000/svg"
   xmlns:svg="http://www.w3.org/2000/svg">
  <defs
     id="defs1" />
  <sodipodi:namedview
     id="namedview1"
     pagecolor="#ffffff"
     bordercolor="#000000"
     borderopacity="0.25"
     inkscape:showpageshadow="2"
     inkscape:pageopacity="0.0"
     inkscape:pagecheckerboard="0"
     inkscape:deskcolor="#d1d1d1"
     inkscape:zoom="3.4292365"
     inkscape:cx="429.68748"
     inkscape:cy="240.86994"
     inkscape:window-width="3840"
     inkscape:window-height="2120"
     inkscape:window-x="-12"
     inkscape:window-y="-12"
     inkscape:window-maximized="1"
     inkscape:current-layer="chipstead_pennant" />
  <polyline
     id="polyline0"
     points="0 0 537 133 0 266"
     fill="blue" />
  <path
     d="m 28,28.358 c 0,0.748 2.587,3.058 5.75,5.135 3.163,2.078 8.73,5.966 12.372,8.642 C 49.765,44.811 53.027,47 53.372,47 53.718,47 54,45.854 54,44.452 54,41.784 50.196,37.514 46.881,36.462 45.839,36.131 41.501,33.87 37.243,31.438 28.779,26.603 28,26.344 28,28.358"
     id="path1"
     fill="white" />
  <path
     d="m 63,49.548 c 0,2.552 0.743,4.236 2.646,6 4.367,4.047 5.86,2.941 4.237,-3.142 C 68.069,45.606 63,43.501 63,49.548"
     id="path2"
     fill="white" />
  <path
     d="m 79.021,59.161 c 0.542,4.225 1.322,5.765 4.306,8.5 2.004,1.836 4.024,3.339 4.489,3.339 0.465,0 0.268,-2.812 -0.438,-6.25 -0.919,-4.478 -2.02,-6.888 -3.886,-8.5 -4.225,-3.651 -5.229,-2.997 -4.471,2.911"
     id="path3"
     fill="white" />
  <path
     d="M 96.004,67.667 C 96.007,73.349 98.63,80 100.866,80 c 1.362,0 9.2,-9.084 8.632,-10.004 -0.416,-0.672 -10.279,-6.729 -12.748,-7.829 -0.412,-0.183 -0.748,2.291 -0.746,5.5"
     id="path4"
     fill="white" />
  <path
     d="m 132.713,55.719 c -3.507,5.098 -4.905,9.106 -4.256,12.205 0.637,3.043 -0.773,5.992 -1.952,4.084 -0.41,-0.663 -1.484,-4.838 -2.388,-9.278 -0.904,-4.439 -2.112,-8.228 -2.685,-8.419 -1.637,-0.546 -5.124,6.531 -6.995,14.197 -1.216,4.985 -2.766,8.284 -5.401,11.492 -5.505,6.705 -6.622,8.751 -9.494,17.39 -2.706,8.144 -4.217,11.104 -13.103,25.675 -12.551,20.581 -14.102,26.166 -8.625,31.06 4.01,3.583 5.48,3.607 7.745,0.125 3.767,-5.79 8.937,-11.25 10.653,-11.25 2.267,0 2.402,4.641 0.334,11.512 -1.745,5.798 -1.261,6.881 2.718,6.085 1.662,-0.332 3.613,-0.114 4.335,0.485 1.891,1.57 3.229,0.351 3.974,-3.617 0.701,-3.74 2.702,-4.527 4.359,-1.715 1.69,2.868 3.17,-0.432 2.847,-6.346 -0.349,-6.382 0.9,-7.964 7.899,-9.999 5.327,-1.548 9.871,-5.184 14.843,-11.876 l 2.021,-2.72 2.44,1.975 2.439,1.975 -2.961,3.73 c -5.192,6.543 -14.46,19.812 -14.46,20.705 0,1.721 -7.055,15.082 -9.495,17.983 -3.14,3.731 -3.181,6.334 -0.131,8.332 5.768,3.78 19.676,2.397 31.626,-3.144 13.383,-6.206 22.482,-6.952 34.022,-2.789 3.927,1.417 7.686,2.366 8.354,2.11 2.077,-0.797 4.133,-13.584 3.968,-24.686 -0.225,-15.223 -4.123,-29.09 -12.226,-43.5 C 179.84,101.67 158.741,79 156.593,79 c -0.559,0 -2.905,1.852 -5.212,4.117 -4.516,4.432 -6.381,4.416 -6.381,-0.055 0,-2.19 0.67,-3.097 3,-4.062 1.65,-0.683 3,-1.526 3,-1.871 0,-0.346 -1.668,-2.029 -3.706,-3.74 -2.941,-2.47 -4.341,-4.932 -6.78,-11.927 -1.691,-4.849 -3.553,-8.975 -4.137,-9.17 -0.584,-0.194 -2.233,1.348 -3.664,3.427"
     id="path5"
     fill="white" />
  <path
     d="m 164.079,71.265 c -3.298,1.683 -3.449,2.772 -0.824,5.965 2.232,2.715 2.301,2.727 11.538,2.1 l 9.292,-0.632 -2.792,-2.972 c -4.935,-5.252 -12.05,-7.096 -17.214,-4.461"
     id="path6"
     fill="white" />
  <path
     d="m 175.25,84.723 c -1.787,0.222 -3.25,0.734 -3.25,1.137 0,0.404 1.736,2.43 3.859,4.502 3.601,3.516 4.219,3.752 9.25,3.52 2.965,-0.137 6.854,0.094 8.641,0.514 4.227,0.992 4.103,-0.162 -0.5,-4.634 -5.573,-5.414 -8.46,-6.222 -18,-5.039"
     id="path7"
     fill="white" />
  <path
     d="m 184,99.845 c 0,0.465 0.838,1.603 1.861,2.53 1.024,0.926 2.642,3.413 3.595,5.526 1.59,3.527 2.131,3.89 6.584,4.417 2.669,0.316 6.227,1.286 7.906,2.154 2.778,1.437 3.054,1.437 3.054,0.004 0,-4.184 -7.042,-12.426 -12.315,-14.415 C 191.328,98.796 184,98.647 184,99.845"
     id="path8"
     fill="white" />
  <path
     d="m 194.603,120.661 c 1.29,5.344 4.135,11.771 5.516,12.463 9.137,4.58 11.822,5.471 12.349,4.098 0.743,-1.935 -1.393,-9.084 -3.733,-12.493 -1.938,-2.825 -5.927,-4.953 -11.633,-6.207 -3.096,-0.68 -3.165,-0.62 -2.499,2.139"
     id="path9"
     fill="white" />
  <path
     d="m 200.842,147.006 c 0.335,5.995 0.446,6.202 6.413,12.005 3.34,3.248 6.448,5.672 6.908,5.388 1.088,-0.672 1.03,-5.861 -0.119,-10.817 -1.034,-4.456 -7.134,-11.123 -11.044,-12.071 -2.486,-0.602 -2.498,-0.571 -2.158,5.495"
     id="path10"
     fill="white" />
  <path
     d="m 200.552,163.25 c -0.212,0.688 -0.669,3.275 -1.016,5.75 -0.348,2.475 -0.862,5.425 -1.143,6.555 -0.483,1.94 -0.132,2.04 6.298,1.792 6.775,-0.261 6.807,-0.277 6.491,-2.996 -0.354,-3.044 -3.407,-7.944 -6.593,-10.579 -2.499,-2.066 -3.52,-2.199 -4.037,-0.522"
     id="path11"
     fill="white" />
  <path
     d="m 102.544,190.589 c -3.898,1.428 -8.544,4.996 -8.544,6.562 0,0.442 1.049,1.49 2.331,2.33 2.122,1.391 2.862,1.343 8.25,-0.534 6.862,-2.389 18.257,-2.774 25.807,-0.872 3.493,0.88 10.206,1.054 23.512,0.609 16.793,-0.561 19.245,-0.429 24.951,1.347 10.939,3.404 31.047,2.284 32.621,-1.818 0.317,-0.826 -0.222,-2.393 -1.198,-3.481 -1.602,-1.788 -2.676,-1.926 -11.088,-1.432 -7.944,0.467 -10.518,0.194 -17.5,-1.855 -10.066,-2.955 -16.046,-3.045 -26.276,-0.398 -8.459,2.189 -13.518,2.065 -26.41,-0.646 -8.36,-1.757 -21.395,-1.665 -26.456,0.188"
     id="path12"
     fill="white" />
  <path
     d="m 119.077,102.589 c -6.747,5.677 -0.836,9.844 8.455,5.962 4.418,-1.846 4.643,-4.892 0.518,-7.025 -4.051,-2.095 -5.412,-1.934 -8.973,1.063"
     id="path17"
     fill="blue" />
  <path
     d="m 138.675,78.874 c -0.72,3.599 -3.355,4.725 -5.826,2.49 -2.389,-2.163 -3.484,-1.061 -2.285,2.302 1.399,3.926 3.755,5.036 7.001,3.299 4.778,-2.557 7.149,-10.965 3.091,-10.965 -0.773,0 -1.665,1.293 -1.981,2.874"
     id="path16"
     fill="blue" />
</svg>
