<?xml version="1.0" encoding="UTF-8"?>
<svg version="1.1" xmlns="http://www.w3.org/2000/svg" width="715" height="290">
<path d="M0 0 C235.95 0 471.9 0 715 0 C715 95.7 715 191.4 715 290 C479.05 290 243.1 290 0 290 C0 194.3 0 98.6 0 0 Z " fill="#FEFDFD" transform="translate(0,0)"/>
<path d="M0 0 C170.94 0 341.88 0 518 0 C514.95560827 2.02959449 512.84178924 2.69947276 509.328125 3.5859375 C508.1949585 3.87525146 507.06179199 4.16456543 505.89428711 4.46264648 C504.69167236 4.76372314 503.48905762 5.0647998 502.25 5.375 C499.79806253 5.99824742 497.34623882 6.62194258 494.89453125 7.24609375 C493.1168335 7.69637939 493.1168335 7.69637939 491.30322266 8.15576172 C486.02888035 9.50377914 480.7778733 10.93366355 475.52734375 12.37109375 C473 13 473 13 471 13 C471.33 14.0725 471.66 15.145 472 16.25 C473 20 473 20 473 24 C477.08513861 22.96533204 481.1680452 21.92215747 485.25 20.875 C486.46880859 20.56240234 487.68761719 20.24980469 488.94335938 19.92773438 C497.36893646 17.74299857 505.71348087 15.37784218 513.99316406 12.69091797 C519.68416023 10.89472008 519.68416023 10.89472008 523 12 C522.42258057 12.31114746 521.84516113 12.62229492 521.25024414 12.94287109 C511.00004148 18.47556442 500.78049707 24.0351757 490.76904297 29.9909668 C483.03505602 34.59046244 475.23321614 39.07108623 467.43457031 43.55981445 C460.27523531 47.68210622 453.1315125 51.82976316 446 56 C446.30679687 56.59441895 446.61359375 57.18883789 446.9296875 57.80126953 C450 63.75 450 63.75 450 66 C450.65145996 65.62415771 451.30291992 65.24831543 451.97412109 64.86108398 C453.95727404 63.71695729 455.94042848 62.5728332 457.92358398 61.42871094 C460.25383568 60.08432862 462.58407812 58.73993029 464.91430664 57.39550781 C470.89182983 53.9468146 476.86951797 50.49840815 482.84765625 47.05078125 C483.94352051 46.41857666 485.03938477 45.78637207 486.16845703 45.13500977 C488.3394206 43.88317931 490.51096601 42.63235734 492.68310547 41.38256836 C497.73342162 38.47451757 502.77264191 35.55093357 507.78515625 32.578125 C508.67082275 32.05573242 509.55648926 31.53333984 510.46899414 30.99511719 C512.11409578 30.02332183 513.75544884 29.04514255 515.39233398 28.05957031 C517.22703933 26.97885064 519.10940664 25.97967111 521 25 C521.66 25.33 522.32 25.66 523 26 C513.1 35.9 503.2 45.8 493 56 C494.73315485 59.4663097 495.31104771 60.54777647 498.125 62.75 C499.07375 63.4925 500.0225 64.235 501 65 C501.26283783 64.41184509 501.52567566 63.82369019 501.79647827 63.2177124 C503.05813504 60.89287538 504.3835506 59.37510246 506.25634766 57.51660156 C506.91688141 56.85621887 507.57741516 56.19583618 508.25796509 55.51544189 C508.96947723 54.81425232 509.68098938 54.11306274 510.4140625 53.390625 C511.14370209 52.66381531 511.87334167 51.93700562 512.62509155 51.18817139 C514.9537388 48.87070802 517.28924826 46.5603005 519.625 44.25 C521.20618653 42.67884556 522.78692125 41.10723629 524.3671875 39.53515625 C528.2395669 35.68481347 532.11760171 31.84023883 536 28 C536.33 28.66 536.66 29.32 537 30 C535.74375754 32.41198553 534.42427938 34.6882623 533 37 C532.06502507 38.55255448 531.13152516 40.10599786 530.19921875 41.66015625 C529.68536621 42.51367676 529.17151367 43.36719727 528.64208984 44.24658203 C525.64193844 49.27716597 522.73215523 54.35992132 519.8125 59.4375 C518.53134207 61.66151137 517.25009053 63.88546882 515.96875 66.109375 C515.32035156 67.23537109 514.67195312 68.36136719 514.00390625 69.52148438 C511.95253764 73.08319577 509.89843161 76.64332403 507.84375 80.203125 C507.50413742 80.79154678 507.16452484 81.37996857 506.81462097 81.98622131 C505.18419138 84.81109084 503.55366492 87.63590443 501.9230957 90.46069336 C500.77892398 92.44355787 499.63599945 94.42714285 498.49462891 96.41162109 C497.56706888 98.01795749 496.63304926 99.62060459 495.68896484 101.21728516 C493.66213274 104.39283304 493.66213274 104.39283304 493 108 C495.97 109.65 498.94 111.3 502 113 C502.26466064 112.29254639 502.52932129 111.58509277 502.80200195 110.85620117 C504.0622334 107.85162654 505.54383309 105.12499202 507.16796875 102.30078125 C507.80653809 101.18687012 508.44510742 100.07295898 509.10302734 98.92529297 C509.79779858 97.72099808 510.49262417 96.51673455 511.1875 95.3125 C511.90604104 94.06152107 512.62429859 92.81037928 513.34228516 91.55908203 C516.89766918 85.36738075 520.46965533 79.18527212 524.04296875 73.00390625 C525.00227295 71.34427856 525.00227295 71.34427856 525.98095703 69.65112305 C527.23520697 67.48164896 528.49008131 65.31253574 529.74560547 63.14379883 C533.93290715 55.89602765 538.04024901 48.60852973 542.03271484 41.25146484 C543.51536597 38.54075925 544.80262312 36.19737688 547 34 C545.64468144 40.18866923 544.21814978 46.35237829 542.6875 52.5 C542.47383789 53.35859619 542.26017578 54.21719238 542.04003906 55.10180664 C540.39363667 61.62913117 538.57401365 68.09201931 536.61206055 74.53125 C535.55883682 78.00089576 534.6331465 81.42822788 534 85 C534.886875 85.144375 535.77375 85.28875 536.6875 85.4375 C539.47145895 85.91024775 542.23297423 86.4390527 545 87 C545.10449463 86.43982178 545.20898926 85.87964355 545.31665039 85.30249023 C546.75842248 77.8201514 548.57204461 70.44906964 550.4375 63.0625 C550.88706055 61.26522461 550.88706055 61.26522461 551.34570312 59.43164062 C553.14646633 52.26374368 555.02217262 45.12108793 557 38 C557.33 38 557.66 38 558 38 C558 67.7 558 97.4 558 128 C373.86 128 189.72 128 0 128 C0 85.76 0 43.52 0 0 Z " fill="#FFFEFE" transform="translate(0,162)"/>
<path d="M0 0 C3.63 0 7.26 0 11 0 C11.33 28.38 11.66 56.76 12 86 C14.97 74.615 14.97 74.615 18 63 C20.8125 52.8125 20.8125 52.8125 22.01953125 48.51953125 C22.71628363 46.01844003 23.39349346 43.52384981 24 41 C25.64671412 41.30782496 27.29235576 41.62139234 28.9375 41.9375 C29.85402344 42.11152344 30.77054688 42.28554687 31.71484375 42.46484375 C34 43 34 43 35 44 C34.41439537 50.34550686 32.74846041 56.46088743 31.1875 62.625 C30.78700439 64.22045654 30.78700439 64.22045654 30.37841797 65.84814453 C28.67127593 72.57303176 26.82681537 79.21092876 24.6640625 85.8046875 C23.90348845 87.93679735 23.90348845 87.93679735 24 90 C24.40613525 89.2879541 24.81227051 88.5759082 25.23071289 87.84228516 C33.32073693 73.66234954 41.43295102 59.49604638 49.60009766 45.36035156 C55.43377743 35.25945751 61.22424521 25.13410637 67 15 C70.57770548 16.38297859 73.74845193 17.95616979 77 20 C76.05408722 24.34560306 73.98583739 27.91067647 71.8125 31.75 C71.37252686 32.53439453 70.93255371 33.31878906 70.47924805 34.12695312 C65.66737923 42.66443397 60.70842286 51.11675794 55.7578125 59.57421875 C52.05710944 65.89764525 48.36872659 72.22806565 44.69784546 78.56884766 C43.70398532 80.28404966 42.70712 81.99750921 41.71020508 83.7109375 C40.80757935 85.27134766 40.80757935 85.27134766 39.88671875 86.86328125 C39.35264404 87.78407471 38.81856934 88.70486816 38.26831055 89.65356445 C36.88996345 92.0419151 36.88996345 92.0419151 36 95 C36.36101807 94.56751953 36.72203613 94.13503906 37.09399414 93.68945312 C42.85525855 86.93933431 49.14297314 80.74532912 55.4375 74.5 C56.5620833 73.38044368 57.68643405 72.26065371 58.81054688 71.140625 C61.53769344 68.42438466 64.26795907 65.71131708 67 63 C71.63268926 64.71581084 72.37625207 66.65150248 76 71 C63.79 83.21 51.58 95.42 39 108 C47.43822683 103.1781561 55.86421156 98.34787338 64.25 93.4375 C74.09821309 87.67939284 83.9756229 81.97354272 93.86621094 76.28857422 C100.57070525 72.42689188 107.24033699 68.51639822 113.81469727 64.4362793 C117.78867235 62 117.78867235 62 120 62 C122.475 66.95 122.475 66.95 125 72 C116.37307114 77.37933127 107.65861878 82.5494036 98.8125 87.5625 C96.36266049 88.95594157 93.91380124 90.35110277 91.46484375 91.74609375 C90.84804749 92.09716187 90.23125122 92.44822998 89.59576416 92.80993652 C83.00967574 96.55996277 76.44041516 100.33892334 69.875 104.125 C68.82803955 104.72771729 67.7810791 105.33043457 66.70239258 105.95141602 C60.42913857 109.57065948 54.19671731 113.25119971 48 117 C48.76965088 116.77860352 49.53930176 116.55720703 50.33227539 116.32910156 C58.88402248 113.87131346 67.43967158 111.42773736 76 109 C77.34529785 108.61811523 77.34529785 108.61811523 78.71777344 108.22851562 C80.78890447 107.64428298 82.86219856 107.06920674 84.9375 106.5 C86.01902344 106.2009375 87.10054687 105.901875 88.21484375 105.59375 C90.96452426 105.00756285 93.2065498 104.65021145 96 105 C98.29633824 108.44450737 98.54016485 110.93812283 99 115 C93.2136949 117.29193485 87.48625282 118.99361936 81.4375 120.4375 C79.67554357 120.86751686 77.9138268 121.29851684 76.15234375 121.73046875 C75.28593262 121.9423584 74.41952148 122.15424805 73.52685547 122.37255859 C68.65610284 123.58201118 63.81383142 124.89538178 58.96875 126.203125 C56.65186977 126.82502443 54.32726912 127.41818272 52 128 C86.65 128.33 121.3 128.66 157 129 C157 174.87 157 220.74 157 268 C105.19 268 53.38 268 0 268 C-0.33 239.62 -0.66 211.24 -1 182 C-2.65 188.6 -4.3 195.2 -6 202 C-8.6875 211.25 -8.6875 211.25 -9.88671875 215.203125 C-11.03431821 219.11704317 -12.03581137 223.03758099 -13 227 C-16.72908331 226.49800802 -20.36147686 225.95792977 -24 225 C-23.49767907 219.04736726 -22.50873865 213.53457546 -20.8125 207.8125 C-20.36642073 206.2593346 -19.92114829 204.70593731 -19.4765625 203.15234375 C-19.23969727 202.3310498 -19.00283203 201.50975586 -18.75878906 200.66357422 C-17.35792003 195.74610924 -16.02686952 190.80949821 -14.6875 185.875 C-14.17064806 183.97654204 -13.65372747 182.07810277 -13.13671875 180.1796875 C-12.75775054 178.78647519 -12.37881884 177.39325294 -12 176 C-12.2902002 176.54076172 -12.58040039 177.08152344 -12.87939453 177.63867188 C-19.78677453 190.47934868 -26.93486218 203.15139517 -34.3203125 215.72265625 C-38.96715845 223.63236882 -43.53897387 231.5850441 -48.11450195 239.53613281 C-48.709646 240.56963867 -49.30479004 241.60314453 -49.91796875 242.66796875 C-50.44156982 243.57828857 -50.9651709 244.4886084 -51.50463867 245.42651367 C-52.97991603 247.9654359 -54.48299726 250.48582646 -56 253 C-59.59391114 251.66511872 -62.75490696 250.03977277 -66 248 C-64.37161462 241.81835869 -61.05758275 236.68905333 -57.8125 231.25 C-56.54099219 229.09544999 -55.27018301 226.94048755 -54 224.78515625 C-53.34128906 223.67027832 -52.68257813 222.55540039 -52.00390625 221.40673828 C-48.73780054 215.85419941 -45.52523429 210.27103629 -42.3125 204.6875 C-38.76880147 198.53183345 -35.22463594 192.37677402 -31.64453125 186.2421875 C-31.13172607 185.36216064 -30.6189209 184.48213379 -30.09057617 183.57543945 C-29.1412182 181.94762976 -28.18969431 180.32108055 -27.2355957 178.69604492 C-26.82011475 177.98295166 -26.40463379 177.2698584 -25.9765625 176.53515625 C-25.43636475 175.61295288 -25.43636475 175.61295288 -24.88525391 174.67211914 C-23.85311545 172.83335569 -23.85311545 172.83335569 -23 170 C-27.68488805 174.65958851 -32.36589493 179.3230494 -37.04418945 183.98925781 C-38.6370417 185.57707299 -40.23078918 187.16399061 -41.82543945 188.75 C-44.11383743 191.02630511 -46.39902479 193.3057903 -48.68359375 195.5859375 C-49.40026718 196.29744965 -50.11694061 197.00896179 -50.85533142 197.74203491 C-51.5159407 198.40256866 -52.17654999 199.06310242 -52.85717773 199.74365234 C-53.44119858 200.32545258 -54.02521942 200.90725281 -54.62693787 201.50668335 C-56.10104122 202.97192889 -56.10104122 202.97192889 -57 205 C-60.81684226 203.44499019 -63.19195732 200.96404505 -66 198 C-64.71977125 195.19030533 -63.39285871 193.1460762 -61.20263672 190.97558594 C-60.64220673 190.41530701 -60.08177673 189.85502808 -59.50436401 189.277771 C-58.90222076 188.68595032 -58.30007751 188.09412964 -57.6796875 187.484375 C-56.75169846 186.5606308 -56.75169846 186.5606308 -55.80496216 185.6182251 C-53.83296186 183.65739664 -51.85411263 181.70364699 -49.875 179.75 C-48.53469836 178.41973201 -47.19484917 177.089008 -45.85546875 175.7578125 C-42.57553411 172.4998985 -39.28944058 169.24831467 -36 166 C-42.67467976 169.27511477 -49.26186027 172.58984413 -55.625 176.4375 C-57.07219049 177.30069779 -58.52016301 178.16258532 -59.96875 179.0234375 C-60.75765625 179.49233398 -61.5465625 179.96123047 -62.359375 180.44433594 C-67.59009228 183.52589386 -72.86124344 186.53785465 -78.125 189.5625 C-86.07998667 194.1337775 -94.01683482 198.72400575 -101.81298828 203.56274414 C-105.78884033 206 -105.78884033 206 -108 206 C-109.65 202.7 -111.3 199.4 -113 196 C-98.88403752 187.40463671 -84.53875339 179.20679962 -70.21087646 170.97167969 C-67.23880595 169.26338691 -64.26705068 167.55455197 -61.29614258 165.84423828 C-59.0741031 164.56521377 -56.85132552 163.28747042 -54.62768555 162.01123047 C-49.01307997 158.77905187 -43.46794895 155.47483567 -38 152 C-38.70640625 152.23074219 -39.4128125 152.46148437 -40.140625 152.69921875 C-47.94050685 155.17832693 -55.78855459 157.25372067 -63.73510742 159.20263672 C-69.1892008 160.54044306 -74.60895318 161.95715284 -80.00390625 163.51953125 C-82 164 -82 164 -85 164 C-86.43668294 160.1389146 -87.11185208 157.103573 -87 153 C-83.9802364 152.12118335 -80.9592259 151.24702715 -77.9375 150.375 C-77.12861328 150.13910156 -76.31972656 149.90320313 -75.48632812 149.66015625 C-64.70792228 146.55788446 -53.86440348 143.83419221 -43 141 C-297.925 140.505 -297.925 140.505 -558 140 C-558 136.37 -558 132.74 -558 129 C-302.58 128.505 -302.58 128.505 -42 128 C-59.41793348 123.23476576 -59.41793348 123.23476576 -76.875 118.625 C-77.87273437 118.36589844 -78.87046875 118.10679687 -79.8984375 117.83984375 C-82.2653176 117.22536526 -84.63249085 116.61204933 -87 116 C-86.85892253 114.54119891 -86.71197585 113.08296449 -86.5625 111.625 C-86.48128906 110.81289062 -86.40007812 110.00078125 -86.31640625 109.1640625 C-86 107 -86 107 -85 105 C-77.98672181 105.33396563 -71.72533539 106.84743409 -65.05322266 108.90966797 C-55.81806647 111.73270342 -46.40930847 113.84546095 -37 116 C-38.0209375 115.44054687 -39.041875 114.88109375 -40.09375 114.3046875 C-51.0246301 108.28732508 -61.81798051 102.0533819 -72.5859375 95.75 C-78.84837427 92.08475276 -85.12183184 88.4389192 -91.40405273 84.80770874 C-93.08588644 83.83511903 -94.7665899 82.8605757 -96.44726562 81.88598633 C-97.47787109 81.29068115 -98.50847656 80.69537598 -99.5703125 80.08203125 C-100.47539551 79.55843018 -101.38047852 79.0348291 -102.31298828 78.49536133 C-105.16776809 76.9066346 -108.06809966 75.44066125 -111 74 C-111.23074219 75.04414062 -111.46148437 76.08828125 -111.69921875 77.1640625 C-113.21893361 84.0272909 -114.74290711 90.8892708 -116.30859375 97.7421875 C-116.52749268 98.70044434 -116.7463916 99.65870117 -116.97192383 100.64599609 C-117.39634639 102.50076235 -117.82190166 104.3552699 -118.2487793 106.20947266 C-118.54715698 107.51343994 -118.54715698 107.51343994 -118.8515625 108.84375 C-119.02510254 109.59849609 -119.19864258 110.35324219 -119.37744141 111.13085938 C-120.30577054 115.4091825 -121.14142686 119.7071343 -122 124 C-132.89 124 -143.78 124 -155 124 C-152.701206 109.05783903 -152.701206 109.05783903 -151.41186523 102.65527344 C-151.19438126 101.55755867 -151.19438126 101.55755867 -150.97250366 100.43766785 C-150.50408927 98.07765101 -150.03156348 95.71848276 -149.55859375 93.359375 C-149.2274049 91.69885996 -148.89635787 90.03831663 -148.56544495 88.37774658 C-147.87734083 84.92836383 -147.18709516 81.47941833 -146.49536133 78.03076172 C-145.60750325 73.60307262 -144.72582969 69.17417678 -143.84577847 64.74493027 C-143.16648418 61.33018282 -142.48364068 57.9161526 -141.7997303 54.50232697 C-141.4727975 52.86781659 -141.14706306 51.23306606 -140.82253838 49.59807587 C-140.37160459 47.32862822 -139.91583144 45.06020646 -139.45874023 42.79199219 C-139.20051987 41.50105652 -138.9422995 40.21012085 -138.67625427 38.88006592 C-138 36 -138 36 -137 35 C-134.6243148 34.9116033 -132.27791326 34.88469695 -129.90234375 34.90234375 C-128.83905602 34.90446617 -128.83905602 34.90446617 -127.75428772 34.90663147 C-125.48198288 34.91224557 -123.20977525 34.92480037 -120.9375 34.9375 C-119.40039204 34.94251319 -117.86328255 34.94707641 -116.32617188 34.95117188 C-112.55074358 34.96221958 -108.77538829 34.97949359 -105 35 C-105.144375 35.60328125 -105.28875 36.2065625 -105.4375 36.828125 C-105.623125 37.62734375 -105.80875 38.4265625 -106 39.25 C-106.185625 40.03890625 -106.37125 40.8278125 -106.5625 41.640625 C-107.12154828 44.25556002 -107.12154828 44.25556002 -107 48 C-106.41605469 47.23816406 -106.41605469 47.23816406 -105.8203125 46.4609375 C-100.72031476 40.18582507 -94.23124959 34.4384708 -86 33 C-84.33610779 32.88534076 -82.66778969 32.82521181 -81 32.8125 C-79.7315625 32.79123047 -79.7315625 32.79123047 -78.4375 32.76953125 C-75.84591384 33.01456904 -74.22975008 33.69415099 -72 35 C-71.63871344 41.439933 -72.99773008 47.19698955 -74.5 53.4375 C-74.85771484 54.96407227 -74.85771484 54.96407227 -75.22265625 56.52148438 C-75.80823121 59.01603368 -76.40083542 61.50868641 -77 64 C-78.20269531 63.83757812 -79.40539062 63.67515625 -80.64453125 63.5078125 C-84.00832372 63.08854218 -87.29351498 62.86509055 -90.6875 62.875 C-91.57824219 62.87242188 -92.46898437 62.86984375 -93.38671875 62.8671875 C-96.01433437 63.0007285 -98.43749191 63.41824141 -101 64 C-101 64.66 -101 65.32 -101 66 C-100.29399658 66.26393555 -99.58799316 66.52787109 -98.8605957 66.79980469 C-95.83140942 68.07073408 -93.07919805 69.56762793 -90.23046875 71.203125 C-89.10568115 71.84717285 -87.98089355 72.4912207 -86.82202148 73.15478516 C-85.61045703 73.85309071 -84.39895121 74.551498 -83.1875 75.25 C-81.936396 75.96813955 -80.68517382 76.68607325 -79.43383789 77.40380859 C-70.28791953 82.65584183 -61.17097928 87.95768342 -52.08081055 93.30566406 C-45.77942455 97.00331534 -39.4216982 100.49725553 -33 104 C-43.56 93.44 -54.12 82.88 -65 72 C-63 68 -63 68 -57 63 C-40.665 79.335 -40.665 79.335 -24 96 C-28.72230151 87.322491 -28.72230151 87.322491 -33.55859375 78.71484375 C-34.18467529 77.61946289 -34.81075684 76.52408203 -35.45581055 75.39550781 C-36.10976807 74.25436523 -36.76372559 73.11322266 -37.4375 71.9375 C-38.13389522 70.72104283 -38.83026518 69.5045712 -39.52661133 68.28808594 C-41.68213013 64.52408273 -43.84083762 60.76191394 -46 57 C-46.52799194 56.07963959 -46.52799194 56.07963959 -47.06665039 55.14068604 C-49.43718792 51.0086808 -51.81136241 46.8787876 -54.1875 42.75 C-54.79843506 41.68644287 -55.40937012 40.62288574 -56.03881836 39.52709961 C-56.9071228 38.02095093 -56.9071228 38.02095093 -57.79296875 36.484375 C-58.3348584 35.54400391 -58.87674805 34.60363281 -59.43505859 33.63476562 C-60.8869811 31.19028081 -62.42039426 28.82410237 -63.98828125 26.453125 C-64.98408203 24.74382813 -64.98408203 24.74382813 -66 23 C-64.89210592 19.67631776 -64.51563783 19.38436907 -61.625 17.75 C-61.01914062 17.39421875 -60.41328125 17.0384375 -59.7890625 16.671875 C-58 16 -58 16 -55 17 C-53.52050781 19.08764648 -53.52050781 19.08764648 -51.953125 21.87109375 C-51.36313721 22.9072583 -50.77314941 23.94342285 -50.1652832 25.01098633 C-49.53323975 26.14173584 -48.90119629 27.27248535 -48.25 28.4375 C-47.58323457 29.61472022 -46.91549467 30.79138899 -46.24682617 31.9675293 C-44.85463922 34.41797969 -43.46671619 36.87077403 -42.08154297 39.32519531 C-38.86708211 45.0117283 -35.58545961 50.65951522 -32.3125 56.3125 C-25.84034726 67.52190545 -19.40918073 78.75448809 -13 90 C-13 86.92191376 -13.54166781 84.74837901 -14.390625 81.80078125 C-14.68638428 80.76324707 -14.98214355 79.72571289 -15.28686523 78.65673828 C-15.76361694 77.00134033 -15.76361694 77.00134033 -16.25 75.3125 C-18.39170948 67.76965169 -20.52605272 60.22998497 -22.4375 52.625 C-22.89962891 50.78808594 -22.89962891 50.78808594 -23.37109375 48.9140625 C-24 46 -24 46 -24 43 C-20.12315913 41.80712589 -17.08378077 41 -13 41 C-12.11922113 43.99839616 -11.24552898 46.99862395 -10.375 50 C-10.13910156 50.80050781 -9.90320313 51.60101563 -9.66015625 52.42578125 C-6.44761556 63.54611441 -3.81305543 74.74777828 -1 86 C-0.67 57.62 -0.34 29.24 0 0 Z " fill="#FE0303" transform="translate(558,22)"/>
<path d="M0 0 C35.31 0 70.62 0 107 0 C107 42.24 107 84.48 107 128 C58.82 128 10.64 128 -39 128 C-39 98.3 -39 68.6 -39 38 C-36.48652166 40.51347834 -36.26978623 42.27521914 -35.44921875 45.72265625 C-35.1651416 46.89401123 -34.88106445 48.06536621 -34.58837891 49.2722168 C-34.29108887 50.52301025 -33.99379883 51.77380371 -33.6875 53.0625 C-31.63762131 61.47945869 -29.58061323 69.87840089 -27.125 78.1875 C-26.92221436 78.88045166 -26.71942871 79.57340332 -26.51049805 80.28735352 C-25.73172014 83.40003654 -25.73172014 83.40003654 -24 86 C-22.46797294 85.74804092 -20.94742872 85.42403223 -19.4375 85.0625 C-18.61121094 84.86785156 -17.78492188 84.67320312 -16.93359375 84.47265625 C-15.97646484 84.23869141 -15.97646484 84.23869141 -15 84 C-16.54412511 76.78152897 -18.32263292 69.69419134 -20.4375 62.625 C-22.12387953 56.96931027 -23.8011404 51.31322872 -25.375 45.625 C-25.71273437 44.42101562 -26.05046875 43.21703125 -26.3984375 41.9765625 C-27 39 -27 39 -26 36 C-25.74009277 36.48017578 -25.48018555 36.96035156 -25.21240234 37.45507812 C-18.5953312 49.65091103 -11.73500142 61.68457326 -4.71484375 73.65234375 C-0.06120093 81.58812136 4.52572796 89.56211457 9.11425781 97.53564453 C9.70948242 98.56931152 10.30470703 99.60297852 10.91796875 100.66796875 C11.44156982 101.57828857 11.9651709 102.4886084 12.50463867 103.42651367 C13.53780116 105.20456523 14.60273695 106.9643965 15.69262695 108.70825195 C17 111 17 111 17 113 C17.55429687 112.71125 18.10859375 112.4225 18.6796875 112.125 C19.40414062 111.75375 20.12859375 111.3825 20.875 111 C21.59429688 110.62875 22.31359375 110.2575 23.0546875 109.875 C25 109 25 109 27 109 C22.35895291 99.36788272 17.38616907 90.053531 11.8984375 80.87890625 C7.7138249 73.87551261 3.69217131 66.77708688 -0.36547852 59.69970703 C-4.73131632 52.11649598 -9.21770041 44.62194639 -13.93920898 37.25415039 C-15.01795055 35.5381671 -16.01858046 33.77344233 -17 32 C-16.67 31.34 -16.34 30.68 -16 30 C-4.78 41.22 6.44 52.44 18 64 C22.48890121 62.10476454 22.48890121 62.10476454 26 57 C14.45 45.45 2.9 33.9 -9 22 C-5.25540606 22 -3.66100976 23.13605547 -0.42578125 25.0078125 C0.704646 25.65782227 1.83507324 26.30783203 2.99975586 26.97753906 C4.2290923 27.69320756 5.45833812 28.40903174 6.6875 29.125 C7.95485763 29.85696824 9.22252078 30.58840773 10.49047852 31.31933594 C14.33234631 33.5370432 18.16696166 35.76707556 22 38 C23.09892578 38.63969727 24.19785156 39.27939453 25.33007812 39.93847656 C30.3079918 42.83836811 35.28284036 45.74350352 40.2578125 48.6484375 C41.20043945 49.19854492 42.14306641 49.74865234 43.11425781 50.31542969 C45.08551945 51.46616618 47.05619676 52.61790407 49.02636719 53.77050781 C51.95126725 55.47866454 54.88116118 57.17792245 57.8125 58.875 C59.13882446 59.65278809 59.13882446 59.65278809 60.49194336 60.44628906 C61.30542236 60.91518555 62.11890137 61.38408203 62.95703125 61.8671875 C63.66835205 62.28081543 64.37967285 62.69444336 65.11254883 63.12060547 C67.10617845 64.21116348 67.10617845 64.21116348 70 64 C71.32 61.36 72.64 58.72 74 56 C73.34854004 55.62415771 72.69708008 55.24831543 72.02587891 54.86108398 C71.10210449 54.32813721 70.17833008 53.79519043 69.2265625 53.24609375 C68.18725586 52.64651855 67.14794922 52.04694336 66.07714844 51.42919922 C63.74437958 50.08332027 61.41168522 48.7373131 59.07910156 47.39111328 C53.14074008 43.96416634 47.20113928 40.53942626 41.2578125 37.12109375 C27.44881142 29.17463756 13.69489188 21.14161531 0 13 C2.88316918 11.55841541 4.48448365 12.47009156 7.57421875 13.29296875 C8.71060791 13.59195068 9.84699707 13.89093262 11.01782227 14.19897461 C12.22881592 14.52518799 13.43980957 14.85140137 14.6875 15.1875 C15.90945068 15.51049072 17.13140137 15.83348145 18.39038086 16.16625977 C21.92901141 17.10321157 25.46500586 18.04943082 29 19 C30.34143066 19.36061523 30.34143066 19.36061523 31.70996094 19.72851562 C32.4837207 19.93669922 33.25748047 20.14488281 34.0546875 20.359375 C34.74989502 20.54604736 35.44510254 20.73271973 36.16137695 20.92504883 C37.93301355 21.40259669 39.70290863 21.8865924 41.47265625 22.37109375 C43.88939932 23.08049225 43.88939932 23.08049225 46 23 C46.99 19.7 47.98 16.4 49 13 C48.24589844 12.89300781 47.49179687 12.78601563 46.71484375 12.67578125 C41.60302061 11.7458702 36.5978472 10.46241039 31.5625 9.1875 C30.49805664 8.91905273 29.43361328 8.65060547 28.33691406 8.37402344 C25.22362252 7.58650498 22.11158315 6.79423868 19 6 C18.16903809 5.78875488 17.33807617 5.57750977 16.48193359 5.35986328 C14.40301754 4.82920091 12.32606683 4.29168671 10.25 3.75 C8.55617188 3.30914062 8.55617188 3.30914062 6.828125 2.859375 C4 2 4 2 0 0 Z " fill="#FFFCFC" transform="translate(608,162)"/>
<path d="M0 0 C4.95764724 6.37573856 4.32829149 14.52760499 3.70703125 22.1953125 C2.98970003 27.91328246 1.86546192 33.5530059 0.70703125 39.1953125 C0.45759766 40.42314453 0.45759766 40.42314453 0.203125 41.67578125 C-0.54083855 45.14090876 -1.39015005 48.55927335 -2.3046875 51.984375 C-2.57841187 53.05075195 -2.57841187 53.05075195 -2.85766602 54.13867188 C-3.21416074 55.52674893 -3.58428115 56.91145021 -3.97241211 58.29101562 C-5.80095371 65.5117213 -5.45711757 72.80131988 -5.29296875 80.1953125 C-9.8319458 80.21996642 -14.37088418 80.23815039 -18.90991211 80.25024414 C-20.45516641 80.2552839 -22.00041591 80.2621157 -23.5456543 80.27075195 C-25.76221904 80.28283326 -27.97872093 80.28854423 -30.1953125 80.29296875 C-31.23751198 80.30071068 -31.23751198 80.30071068 -32.30076599 80.30860901 C-33.96526205 80.30880527 -35.62962374 80.25720379 -37.29296875 80.1953125 C-38.29296875 79.1953125 -38.29296875 79.1953125 -38.35546875 75.6328125 C-38.33484375 74.4984375 -38.31421875 73.3640625 -38.29296875 72.1953125 C-38.95296875 72.1953125 -39.61296875 72.1953125 -40.29296875 72.1953125 C-40.29296875 72.8553125 -40.29296875 73.5153125 -40.29296875 74.1953125 C-49.74050895 81.99532526 -60.5355567 83.15423775 -72.32666016 82.39794922 C-80.12621112 81.59417131 -85.01283334 78.22393777 -89.91796875 72.29296875 C-94.43786855 65.39755342 -94.24545712 57.52604572 -92.828125 49.59375 C-90.53554721 41.69860045 -86.14794485 36.94493252 -79.04296875 32.9453125 C-67.49106146 27.5895577 -54.11028647 26.99195094 -41.57397461 25.92871094 C-37.51275294 25.55994589 -33.9412386 25.17345507 -30.29296875 23.1953125 C-27.96253317 19.69965914 -27.70533631 18.3087396 -28.29296875 14.1953125 C-30.44072085 11.56258411 -32.06787938 10.39247878 -35.453125 9.84765625 C-40.16631882 9.6666822 -43.5876637 10.03490525 -47.29296875 13.1953125 C-47.68589111 14.04762451 -48.07881348 14.89993652 -48.48364258 15.77807617 C-50.29296875 18.1953125 -50.29296875 18.1953125 -53.47924805 18.76293945 C-54.76226807 18.73675537 -56.04528809 18.71057129 -57.3671875 18.68359375 C-58.05102005 18.67651901 -58.7348526 18.66944427 -59.43940735 18.66215515 C-61.62088034 18.63419254 -63.79977369 18.57146314 -65.98046875 18.5078125 C-67.46024935 18.48273147 -68.94007024 18.45991794 -70.41992188 18.43945312 C-74.04510738 18.38436385 -77.66878628 18.29808358 -81.29296875 18.1953125 C-80.15867898 9.4289463 -76.99818088 3.10736496 -70.16796875 -2.6796875 C-52.21069644 -15.41193409 -16.37974338 -15.01223234 0 0 Z " fill="#020202" transform="translate(196.29296875,65.8046875)"/>
<path d="M0 0 C2.22525683 1.66237568 4.17702859 3.38228238 6.12890625 5.35546875 C6.98355469 6.17337891 6.98355469 6.17337891 7.85546875 7.0078125 C16.70703739 16.27361711 16.61291896 26.57555244 16.3671875 38.72265625 C16.28646003 41.89707906 15.91693087 44.20337025 15.12890625 47.35546875 C-5.33109375 47.35546875 -25.79109375 47.35546875 -46.87109375 47.35546875 C-44.43955161 59.79180421 -44.43955161 59.79180421 -38.87109375 63.35546875 C-35.99789631 63.82925671 -35.99789631 63.82925671 -32.93359375 63.73046875 C-31.91394531 63.73820312 -30.89429688 63.7459375 -29.84375 63.75390625 C-26.48459101 63.30366418 -24.58865826 62.34867349 -21.87109375 60.35546875 C-21.54109375 59.69546875 -21.21109375 59.03546875 -20.87109375 58.35546875 C-10.31109375 58.35546875 0.24890625 58.35546875 11.12890625 58.35546875 C7.78624564 68.38345058 2.93208309 76.1353711 -6.56640625 81.328125 C-15.94996425 85.51096526 -24.43828453 86.72357576 -34.62109375 86.79296875 C-36.05787476 86.80807495 -36.05787476 86.80807495 -37.52368164 86.82348633 C-48.8539868 86.68575264 -59.66893693 83.43903748 -67.9140625 75.3515625 C-78.22753095 63.05896364 -77.73762002 49.53410154 -76.65625 34.3359375 C-74.85245459 22.11471688 -67.44451473 10.84306058 -57.87109375 3.35546875 C-40.30436915 -8.29683098 -18.67719514 -10.69809409 0 0 Z " fill="#020202" transform="translate(379.87109375,61.64453125)"/>
<path d="M0 0 C1.51815699 0.00015911 3.0363194 0.00585313 4.55444336 0.01586914 C5.35208603 0.01728409 6.1497287 0.01869904 6.97154236 0.02015686 C9.52916146 0.02577223 12.08669429 0.03832727 14.64428711 0.05102539 C16.37410356 0.05603841 18.10392137 0.06060166 19.83374023 0.06469727 C24.08312264 0.07574664 28.33244023 0.09302153 32.58178711 0.11352539 C29.77588637 17.88692594 26.41834926 35.53093869 22.86096191 53.16717529 C22.31479122 55.88178055 21.77372317 58.59739331 21.23261833 61.31301212 C20.57851504 64.59216113 19.91985042 67.87038772 19.26147461 71.14868164 C19.02186005 72.34969009 18.78224548 73.55069855 18.53536987 74.7881012 C18.19458908 76.4729789 18.19458908 76.4729789 17.84692383 78.19189453 C17.65025116 79.16985489 17.45357849 80.14781525 17.25094604 81.15541077 C16.49271899 84.50726402 15.52587811 87.8092069 14.58178711 91.11352539 C31.74178711 91.11352539 48.90178711 91.11352539 66.58178711 91.11352539 C65.93198864 96.31191313 65.23055287 101.05895606 64.08178711 106.11352539 C63.21107238 110.04864874 62.40431739 113.91990751 61.95678711 117.92602539 C61.58178711 121.11352539 61.58178711 121.11352539 60.58178711 122.11352539 C57.81239744 122.20870342 55.06801552 122.23906804 52.29833984 122.22705078 C50.99601913 122.22726982 50.99601913 122.22726982 49.66738892 122.22749329 C46.78336125 122.22679385 43.89939731 122.21900002 41.01538086 122.21118164 C39.02140844 122.20931757 37.02743556 122.20789362 35.03346252 122.20689392 C29.77433009 122.20306787 24.51522508 122.19323684 19.25610352 122.18218994 C13.89396536 122.17197769 8.5318228 122.1673967 3.16967773 122.16235352 C-7.35963122 122.15161465 -17.88891978 122.13453719 -28.41821289 122.11352539 C-27.95017466 119.42527857 -27.48044444 116.73734522 -27.00976562 114.04956055 C-26.87895348 113.2971962 -26.74814133 112.54483185 -26.61336517 111.76966858 C-25.41978474 104.96705377 -23.98027686 98.22991928 -22.48071289 91.48852539 C-20.57131914 82.76541269 -18.81833137 74.0475982 -17.35571289 65.23852539 C-15.99654073 57.07507216 -14.32715835 49.04288152 -12.42285156 40.99023438 C-10.11239612 31.08739757 -8.24892466 21.10048239 -6.38549805 11.10571289 C-6.02270752 9.18178711 -6.02270752 9.18178711 -5.65258789 7.21899414 C-5.33112793 5.48879028 -5.33112793 5.48879028 -5.00317383 3.72363281 C-4.13362972 -0.1562904 -4.15135207 0.13787435 0 0 Z " fill="#020202" transform="translate(30.418212890625,23.886474609375)"/>
<path d="M0 0 C3.93944663 3.61055035 7.80088249 7.67058885 9 13 C9 15.64 9 18.28 9 21 C-0.9 21 -10.8 21 -21 21 C-21.66 19.02 -22.32 17.04 -23 15 C-27.05169714 12.29886858 -30.25041316 12.47703105 -35 13 C-37.67734485 13.77696483 -37.67734485 13.77696483 -39 16 C-39.17407029 17.98277438 -39.17407029 17.98277438 -39.08984375 20.125 C-39.06019531 21.40375 -39.03054687 22.6825 -39 24 C-38.29504395 24.12528076 -37.59008789 24.25056152 -36.86376953 24.37963867 C-33.61442992 24.96643588 -30.36992808 25.57679724 -27.125 26.1875 C-26.01640625 26.38408203 -24.9078125 26.58066406 -23.765625 26.78320312 C-14.07028871 28.6367233 -5.54145759 31.28611041 0.84375 39.15625 C5.23587187 46.15990379 4.96659699 54.05673215 3.41796875 61.9765625 C0.92616889 70.0550004 -4.04742406 75.83610393 -11.15234375 80.375 C-13.07358208 81.37802654 -14.97715191 82.22529222 -17 83 C-18.5159375 83.5878125 -18.5159375 83.5878125 -20.0625 84.1875 C-34.01132838 88.04568657 -53.59096539 88.4287119 -66.5390625 81.67578125 C-73.98308341 77.05660867 -78.08148921 71.96768361 -80.51953125 63.5625 C-81 61 -81 61 -81 55 C-70.77 55 -60.54 55 -50 55 C-49.01 58.465 -49.01 58.465 -48 62 C-45.32528957 64.67471043 -43.85194382 64.32943834 -40.125 64.375 C-39.07570312 64.40335937 -38.02640625 64.43171875 -36.9453125 64.4609375 C-33.33789688 63.89638174 -32.20224654 62.85457076 -30 60 C-29.33314062 57.45672892 -29.33314062 57.45672892 -30 55 C-32.9445064 52.26369103 -35.5213915 51.44011776 -39.4296875 50.71875 C-40.47253906 50.51636719 -41.51539063 50.31398437 -42.58984375 50.10546875 C-43.67394531 49.90566406 -44.75804687 49.70585938 -45.875 49.5 C-56.62779533 47.50397212 -63.46990608 45.5176107 -70.75 36.9375 C-74.12191721 31.71102833 -73.42954026 24.96754151 -73 19 C-71.21682787 11.10684103 -66.68466453 4.56401234 -60 0 C-43.34909526 -9.80063436 -16.32918933 -11.22455502 0 0 Z " fill="#030303" transform="translate(287,62)"/>
<path d="M0 0 C0.845625 -0.01417969 1.69125 -0.02835938 2.5625 -0.04296875 C5.15408616 0.20206904 6.77024992 0.88165099 9 2.1875 C9.36128656 8.627433 8.00226992 14.38448955 6.5 20.625 C6.26152344 21.64271484 6.02304687 22.66042969 5.77734375 23.70898438 C5.19176879 26.20353368 4.59916458 28.69618641 4 31.1875 C2.18822266 30.94966797 2.18822266 30.94966797 0.33984375 30.70703125 C-8.50932483 29.61086361 -16.23958197 29.18077869 -24 34.1875 C-31.72133999 41.23741912 -32.77378077 53.08311385 -35 62.875 C-35.2475 63.94427734 -35.495 65.01355469 -35.75 66.11523438 C-37.66079897 74.45009967 -39.3213932 82.79446599 -41 91.1875 C-51.89 91.1875 -62.78 91.1875 -74 91.1875 C-71.701206 76.24533903 -71.701206 76.24533903 -70.41186523 69.84277344 C-70.26687592 69.11096359 -70.1218866 68.37915375 -69.97250366 67.62516785 C-69.50408927 65.26515101 -69.03156348 62.90598276 -68.55859375 60.546875 C-68.2274049 58.88635996 -67.89635787 57.22581663 -67.56544495 55.56524658 C-66.87734083 52.11586383 -66.18709516 48.66691833 -65.49536133 45.21826172 C-64.60750325 40.79057262 -63.72582969 36.36167678 -62.84577847 31.93243027 C-62.16648418 28.51768282 -61.48364068 25.1036526 -60.7997303 21.68982697 C-60.4727975 20.05531659 -60.14706306 18.42056606 -59.82253838 16.78557587 C-59.37160459 14.51612822 -58.91583144 12.24770646 -58.45874023 9.97949219 C-58.20051987 8.68855652 -57.9422995 7.39762085 -57.67625427 6.06756592 C-57 3.1875 -57 3.1875 -56 2.1875 C-53.6243148 2.0991033 -51.27791326 2.07219695 -48.90234375 2.08984375 C-47.83905602 2.09196617 -47.83905602 2.09196617 -46.75428772 2.09413147 C-44.48198288 2.09974557 -42.20977525 2.11230037 -39.9375 2.125 C-38.40039204 2.13001319 -36.86328255 2.13457641 -35.32617188 2.13867188 C-31.55074358 2.14971958 -27.77538829 2.16699359 -24 2.1875 C-24.144375 2.79078125 -24.28875 3.3940625 -24.4375 4.015625 C-24.7159375 5.21445312 -24.7159375 5.21445312 -25 6.4375 C-25.2784375 7.62085938 -25.2784375 7.62085938 -25.5625 8.828125 C-26.12154828 11.44306002 -26.12154828 11.44306002 -26 15.1875 C-25.61070312 14.67960937 -25.22140625 14.17171875 -24.8203125 13.6484375 C-18.29478625 5.61933377 -10.55989426 0.080487 0 0 Z " fill="#030303" transform="translate(477,54.8125)"/>
<path d="M0 0 C-1.34553075 7.64828003 -2.85531983 14.43291415 -9.0625 19.5 C-13.79081009 21.79251398 -18.8832315 21.78532681 -24 21 C-26.6875 19.4375 -26.6875 19.4375 -28 17 C-28.5625 13.5625 -28.5625 13.5625 -28 10 C-25.5625 7.125 -25.5625 7.125 -23 5 C-22.67 4.67 -22.34 4.34 -22 4 C-18.91151377 3.55179285 -15.82406589 3.18149574 -12.72265625 2.83789062 C-8.40821036 2.31659706 -4.1787448 0 0 0 Z " fill="#F9F9F9" transform="translate(164,107)"/>
<path d="M0 0 C2.45522218 2.15761949 3.76154008 3.79975072 5.0625 6.8125 C5.0625 9.1225 5.0625 11.4325 5.0625 13.8125 C-4.8375 13.8125 -14.7375 13.8125 -24.9375 13.8125 C-22.66880194 7.00640582 -22.66880194 7.00640582 -20.0625 4.0625 C-19.57007813 3.49015625 -19.07765625 2.9178125 -18.5703125 2.328125 C-13.45459065 -2.42043978 -6.27383554 -2.53623139 0 0 Z " fill="#F2F2F2" transform="translate(360.9375,78.1875)"/>
<path d="M0 0 C1.21065165 3.63195496 0.62784815 5.06531629 -0.4375 8.6875 C-0.72496094 9.68136719 -1.01242187 10.67523438 -1.30859375 11.69921875 C-1.53675781 12.45847656 -1.76492188 13.21773437 -2 14 C-2.66 13.34 -3.32 12.68 -4 12 C-4.99 12.495 -4.99 12.495 -6 13 C-4.31326082 8.50202887 -2.18326108 4.27113698 0 0 Z " fill="#FFC5C5" transform="translate(546,196)"/>
<path d="M0 0 C0.66 0.33 1.32 0.66 2 1 C1.67 1.33 1.34 1.66 1 2 C1.66 2.66 2.32 3.32 3 4 C-1.29 4.99 -5.58 5.98 -10 7 C-6.73093793 3.73093793 -4.09304414 2.08373156 0 0 Z " fill="#FFC7C7" transform="translate(614,133)"/>
</svg>
