<?xml version="1.0" encoding="UTF-8" standalone="no"?>
<svg
   xmlns:dc="http://purl.org/dc/elements/1.1/"
   xmlns:cc="http://creativecommons.org/ns#"
   xmlns:rdf="http://www.w3.org/1999/02/22-rdf-syntax-ns#"
   xmlns:svg="http://www.w3.org/2000/svg"
   xmlns="http://www.w3.org/2000/svg"
   version="1.1"
   width="250"
   height="330"
   >
  <metadata id="metadata3202">
    <rdf:RDF>
      <cc:Work rdf:about="">
        <dc:format>image/svg+xml</dc:format>
        <dc:type rdf:resource="http://purl.org/dc/dcmitype/StillImage" />
        <dc:title></dc:title>
      </cc:Work>
    </rdf:RDF>
  </metadata>
  <g id="International Optimist Dinghy Association - Class Emblem" transform="translate(0,-722.3622)">
    <path d="m 125,722.375 c -69.035594,0 -125,55.96441 -125,125 0,63.43673 47.270735,115.82415 108.5,123.90625 l 0,67.58095 -13.5,13.5 60,0 -13.5,-13.5 0,-67.58095 C 202.72926,963.19915 250,910.81173 250,847.375 c 0,-69.03559 -55.96441,-125 -125,-125 z m 0,30 c 52.46705,0 95,42.53295 95,95 0,46.83845 -33.89924,85.78192 -78.5,93.59375 l 0,-105.10657 13.5,-13.5 -60,0 13.5,13.5 0,105.10657 C 63.899244,933.15692 30,894.21345 30,847.375 c 0,-52.46705 42.532949,-95 95,-95 z" style="fill:#000000;stroke:none" />
  </g>
</svg>
